<svg width="980" height="710" viewBox="0 0 980 710" fill="none" xmlns="http://www.w3.org/2000/svg">
<g filter="url(#filter0_d_108_3)">
<circle cx="745" cy="335" r="210" fill="url(#paint0_linear_108_3)"/>
<circle cx="210" cy="210" r="210" transform="matrix(-1 0 0 1 445 125)" fill="url(#paint1_linear_108_3)"/>
<g clip-path="url(#clip0_108_3)">
<rect x="160" y="5" width="660" height="660" rx="330" fill="#1A1A21"/>
<rect x="235" y="-40" width="510" height="735" fill="url(#paint2_radial_108_3)"/>
<circle cx="490" cy="335" r="150" fill="#17181D"/>
<path d="M437.18 380.361C425.198 380.361 413.706 375.601 405.233 367.128C396.76 358.655 392 347.163 392 335.181C392 323.198 396.76 311.706 405.233 303.233C413.706 294.76 425.198 290 437.18 290V335.181L437.18 380.361Z" fill="#BFBFC0"/>
<ellipse cx="489.59" cy="335.181" rx="45.1805" ry="45.1805" fill="#BFBFC0"/>
<path d="M541.999 380.361C553.982 380.361 565.474 375.601 573.947 367.128C582.42 358.655 587.18 347.163 587.18 335.181C587.18 323.198 582.42 311.706 573.947 303.233C565.474 294.76 553.982 290 541.999 290V335.181L541.999 380.361Z" fill="#BFBFC0"/>
</g>
</g>
<defs>
<filter id="filter0_d_108_3" x="0" y="0" width="980" height="710" filterUnits="userSpaceOnUse" color-interpolation-filters="sRGB">
<feFlood flood-opacity="0" result="BackgroundImageFix"/>
<feColorMatrix in="SourceAlpha" type="matrix" values="0 0 0 0 0 0 0 0 0 0 0 0 0 0 0 0 0 0 127 0" result="hardAlpha"/>
<feOffset dy="20"/>
<feGaussianBlur stdDeviation="12.5"/>
<feComposite in2="hardAlpha" operator="out"/>
<feColorMatrix type="matrix" values="0 0 0 0 0.0588235 0 0 0 0 0.0588235 0 0 0 0 0.0627451 0 0 0 0.1 0"/>
<feBlend mode="normal" in2="BackgroundImageFix" result="effect1_dropShadow_108_3"/>
<feBlend mode="normal" in="SourceGraphic" in2="effect1_dropShadow_108_3" result="shape"/>
</filter>
<linearGradient id="paint0_linear_108_3" x1="955" y1="297.5" x2="857.5" y2="297.5" gradientUnits="userSpaceOnUse">
<stop stop-color="#2A282E"/>
<stop offset="0.938674" stop-color="#262432"/>
</linearGradient>
<linearGradient id="paint1_linear_108_3" x1="420" y1="172.5" x2="322.5" y2="172.5" gradientUnits="userSpaceOnUse">
<stop stop-color="#2A282E"/>
<stop offset="0.938674" stop-color="#262432"/>
</linearGradient>
<radialGradient id="paint2_radial_108_3" cx="0" cy="0" r="1" gradientUnits="userSpaceOnUse" gradientTransform="translate(490 327.5) rotate(90) scale(367.5 255)">
<stop stop-color="#D9D9D9"/>
<stop offset="1" stop-color="#D9D9D9" stop-opacity="0.76"/>
</radialGradient>
<clipPath id="clip0_108_3">
<rect x="160" y="5" width="660" height="660" rx="330" fill="white"/>
</clipPath>
</defs>
</svg>
